<svg xmlns="http://www.w3.org/2000/svg" xmlns:xlink="http://www.w3.org/1999/xlink" width="262pt" height="317pt" viewBox="0.00 0.00 262.00 317.00">
<g id="graph0" class="graph" transform="scale(1 1) rotate(0) translate(4 312.63)">
<polygon fill="white" stroke="none" points="-4,4 -4,-312.63 258.38,-312.63 258.38,4 -4,4"/>
<!-- 2382753832240 -->
<g id="node1" class="node">
<title>2382753832240</title>
<ellipse fill="lightgreen" stroke="lightgreen" cx="80" cy="-267.98" rx="67" ry="40.66"/>
<text xml:space="preserve" text-anchor="middle" x="80" y="-279.43" font-family="Times New Roman,serif" font-size="14.00">Split on 'color'</text>
<text xml:space="preserve" text-anchor="middle" x="80" y="-262.93" font-family="Times New Roman,serif" font-size="14.00">Value: 'green'</text>
<text xml:space="preserve" text-anchor="middle" x="80" y="-246.43" font-family="Times New Roman,serif" font-size="14.00">Gain=0.9911</text>
</g>
<!-- 2382753771152 -->
<g id="node2" class="node">
<title>2382753771152</title>
<polygon fill="lightblue" stroke="lightblue" points="82,-154.66 0,-154.66 0,-113.66 82,-113.66 82,-154.66"/>
<text xml:space="preserve" text-anchor="middle" x="41" y="-137.36" font-family="Times New Roman,serif" font-size="14.00">Leaf</text>
<text xml:space="preserve" text-anchor="middle" x="41" y="-120.86" font-family="Times New Roman,serif" font-size="14.00">Class: apple</text>
</g>
<!-- 2382753832240&#45;&gt;2382753771152 -->
<g id="edge1" class="edge">
<title>2382753832240-&gt;2382753771152</title>
<path fill="none" stroke="black" d="M68.4,-227.78C62.56,-208.02 55.57,-184.39 50.11,-165.95"/>
<polygon fill="black" stroke="black" points="53.48,-164.99 47.28,-156.4 46.76,-166.98 53.48,-164.99"/>
<text xml:space="preserve" text-anchor="middle" x="90.21" y="-196.02" font-family="Times New Roman,serif" font-size="14.00">== 'green'</text>
</g>
<!-- 2382753771472 -->
<g id="node3" class="node">
<title>2382753771472</title>
<ellipse fill="lightgreen" stroke="lightgreen" cx="162" cy="-134.16" rx="62.23" ry="40.66"/>
<text xml:space="preserve" text-anchor="middle" x="162" y="-145.61" font-family="Times New Roman,serif" font-size="14.00">Split on 'size'</text>
<text xml:space="preserve" text-anchor="middle" x="162" y="-129.11" font-family="Times New Roman,serif" font-size="14.00">Value: 'large'</text>
<text xml:space="preserve" text-anchor="middle" x="162" y="-112.61" font-family="Times New Roman,serif" font-size="14.00">Gain=0.9710</text>
</g>
<!-- 2382753832240&#45;&gt;2382753771472 -->
<g id="edge4" class="edge">
<title>2382753832240-&gt;2382753771472</title>
<path fill="none" stroke="black" d="M104.79,-229.92C109.24,-223.11 113.8,-216.02 118,-209.32 123.37,-200.74 128.96,-191.53 134.3,-182.61"/>
<polygon fill="black" stroke="black" points="137.31,-184.4 139.41,-174.01 131.29,-180.82 137.31,-184.4"/>
<text xml:space="preserve" text-anchor="middle" x="153.4" y="-196.02" font-family="Times New Roman,serif" font-size="14.00">!= 'green'</text>
</g>
<!-- 2382381586144 -->
<g id="node4" class="node">
<title>2382381586144</title>
<polygon fill="lightblue" stroke="lightblue" points="153.62,-41 66.38,-41 66.38,0 153.62,0 153.62,-41"/>
<text xml:space="preserve" text-anchor="middle" x="110" y="-23.7" font-family="Times New Roman,serif" font-size="14.00">Leaf</text>
<text xml:space="preserve" text-anchor="middle" x="110" y="-7.2" font-family="Times New Roman,serif" font-size="14.00">Class: cherry</text>
</g>
<!-- 2382753771472&#45;&gt;2382381586144 -->
<g id="edge2" class="edge">
<title>2382753771472-&gt;2382381586144</title>
<path fill="none" stroke="black" d="M142.68,-95.16C139.46,-88.63 136.22,-81.89 133.25,-75.5 129.72,-67.89 126.05,-59.59 122.71,-51.84"/>
<polygon fill="black" stroke="black" points="125.98,-50.58 118.83,-42.76 119.54,-53.33 125.98,-50.58"/>
<text xml:space="preserve" text-anchor="middle" x="159.12" y="-62.2" font-family="Times New Roman,serif" font-size="14.00">== 'large'</text>
</g>
<!-- 2382753802720 -->
<g id="node5" class="node">
<title>2382753802720</title>
<polygon fill="lightblue" stroke="lightblue" points="254.38,-41 171.62,-41 171.62,0 254.38,0 254.38,-41"/>
<text xml:space="preserve" text-anchor="middle" x="213" y="-23.7" font-family="Times New Roman,serif" font-size="14.00">Leaf</text>
<text xml:space="preserve" text-anchor="middle" x="213" y="-7.2" font-family="Times New Roman,serif" font-size="14.00">Class: grape</text>
</g>
<!-- 2382753771472&#45;&gt;2382753802720 -->
<g id="edge3" class="edge">
<title>2382753771472-&gt;2382753802720</title>
<path fill="none" stroke="black" d="M179.55,-94.73C185.94,-80.74 193.08,-65.12 199.11,-51.91"/>
<polygon fill="black" stroke="black" points="202.28,-53.4 203.25,-42.85 195.91,-50.49 202.28,-53.4"/>
<text xml:space="preserve" text-anchor="middle" x="219.05" y="-62.2" font-family="Times New Roman,serif" font-size="14.00">!= 'large'</text>
</g>
</g>
</svg>